<?xml version="1.0" encoding="UTF-8"?>
<svg id="Ebene_2" data-name="Ebene 2" xmlns="http://www.w3.org/2000/svg" viewBox="0 0 231.61 38.54">
  <defs>
    <style>
      .cls-1 {
        fill: #ff7268;
      }

      .cls-2 {
        isolation: isolate;
      }

      .cls-3 {
        fill: #f9c801;
      }

      .cls-4 {
        fill: #fff;
      }

      .cls-5 {
        fill: #6038f8;
      }
    </style>
  </defs>
  <g id="Isolationsmodus">
    <g>
      <g class="cls-2">
        <g class="cls-2">
          <path class="cls-4" d="M102.81,32.99l2.52,2.74c-.79.84-1.73,1.51-2.83,2.02-1.09.5-2.35.76-3.76.76-1.92,0-3.56-.38-4.91-1.13-1.36-.76-2.39-1.81-3.1-3.17s-1.06-2.92-1.06-4.7c0-1.63.38-3.13,1.15-4.5.77-1.37,1.83-2.46,3.19-3.28,1.36-.82,2.93-1.22,4.73-1.22,1.37,0,2.62.25,3.74.74s2.09,1.16,2.88,2l-2.7,2.74c-.46-.55-1.01-.98-1.67-1.3-.66-.31-1.41-.47-2.25-.47-1.08,0-1.97.25-2.68.76s-1.24,1.16-1.58,1.96c-.35.8-.52,1.66-.52,2.57,0,.84.17,1.67.52,2.48.35.82.88,1.49,1.58,2.02.71.53,1.6.79,2.68.79.84,0,1.61-.16,2.32-.49.71-.32,1.29-.76,1.75-1.31Z"/>
        </g>
        <g class="cls-2">
          <path class="cls-4" d="M106.84,29.5c0-1.63.38-3.13,1.15-4.5.77-1.37,1.83-2.46,3.19-3.28,1.36-.82,2.93-1.22,4.73-1.22s3.38.41,4.73,1.22c1.36.82,2.42,1.91,3.19,3.28.77,1.37,1.15,2.87,1.15,4.5s-.38,3.13-1.15,4.5c-.77,1.37-1.83,2.47-3.19,3.29-1.36.83-2.93,1.24-4.73,1.24s-3.38-.41-4.73-1.24c-1.36-.83-2.42-1.93-3.19-3.29-.77-1.37-1.15-2.87-1.15-4.5ZM115.91,34.86c1.08,0,1.97-.28,2.68-.83s1.24-1.24,1.58-2.07c.35-.83.52-1.65.52-2.47s-.17-1.63-.52-2.45c-.35-.82-.88-1.5-1.58-2.05-.71-.55-1.6-.83-2.68-.83s-1.97.28-2.68.83c-.71.55-1.24,1.24-1.58,2.05-.35.82-.52,1.63-.52,2.45s.17,1.64.52,2.47.88,1.52,1.58,2.07,1.6.83,2.68.83Z"/>
          <path class="cls-4" d="M140.13,37.96l-.11-1.66c-.43.48-1.06.97-1.89,1.48-.83.5-1.88.76-3.15.76s-2.4-.34-3.53-1.01c-1.13-.67-2.06-1.66-2.79-2.97-.73-1.31-1.1-2.89-1.1-4.73,0-1.32.19-2.48.58-3.49.38-1.01.86-1.85,1.44-2.52.65-.77,1.37-1.37,2.16-1.82s1.57-.77,2.34-.97c.77-.2,1.43-.31,1.98-.31.74,0,1.33.03,1.75.09.42.06.79.14,1.12.25.32.11.69.25,1.1.41v-7.52h4.21v24.01h-4.1ZM140.03,30.47v-5.18c-.74-.6-1.91-.9-3.49-.9-.82,0-1.51.16-2.07.49s-1.05.75-1.46,1.28c-.77,1.01-1.15,2.23-1.15,3.67s.36,2.64,1.08,3.6c.72.96,1.76,1.44,3.13,1.44.98,0,1.76-.23,2.34-.68.58-.46.99-1.03,1.24-1.71.25-.68.38-1.35.38-2Z"/>
          <path class="cls-4" d="M161.99,32.92l2.3,2.59c-.07.07-.27.27-.59.59-.32.32-.79.67-1.4,1.04s-1.39.7-2.34.97c-.95.28-2.08.41-3.4.41-1.8,0-3.37-.39-4.7-1.17-1.33-.78-2.37-1.87-3.11-3.26-.74-1.39-1.12-2.99-1.12-4.79,0-1.66.37-3.15,1.1-4.48s1.74-2.39,3.02-3.17c1.28-.78,2.77-1.17,4.45-1.17,1.56,0,2.87.28,3.92.83,1.06.55,1.91,1.29,2.56,2.21s1.12,1.96,1.4,3.11c.29,1.15.43,2.33.43,3.53v.61h-12.6c0,.82.23,1.53.7,2.14.47.61,1.06,1.09,1.78,1.44.72.35,1.45.52,2.2.52,1.1,0,2.02-.13,2.74-.38.72-.25,1.3-.53,1.73-.85.43-.31.74-.56.94-.76ZM151.87,27.74h8.28c0-.58-.15-1.15-.45-1.71-.3-.56-.74-1.03-1.31-1.4s-1.31-.56-2.2-.56c-.94,0-1.72.19-2.36.56-.64.37-1.12.84-1.46,1.4-.34.56-.5,1.13-.5,1.71Z"/>
        </g>
        <g class="cls-2">
          <path class="cls-4" d="M169.23,32.2v-7.67h-2.88v-3.46h2.88v-5.47h4.25v5.47h4.54v3.46h-4.54v7.38c0,.96.16,1.7.49,2.21.32.52.85.77,1.57.77.67,0,1.21-.1,1.6-.29.4-.19.77-.42,1.13-.68l1.8,2.63c-.84.67-1.67,1.17-2.48,1.48-.82.31-1.73.47-2.74.47-2.06,0-3.52-.58-4.36-1.73-.84-1.15-1.26-2.68-1.26-4.57Z"/>
        </g>
        <g class="cls-2">
          <path class="cls-4" d="M195.11,32.92l2.3,2.59c-.07.07-.27.27-.59.59-.32.32-.79.67-1.4,1.04s-1.39.7-2.34.97c-.95.28-2.08.41-3.4.41-1.8,0-3.37-.39-4.7-1.17-1.33-.78-2.37-1.87-3.11-3.26-.74-1.39-1.12-2.99-1.12-4.79,0-1.66.37-3.15,1.1-4.48s1.74-2.39,3.02-3.17c1.28-.78,2.77-1.17,4.45-1.17,1.56,0,2.87.28,3.92.83,1.06.55,1.91,1.29,2.56,2.21s1.12,1.96,1.4,3.11c.29,1.15.43,2.33.43,3.53v.61h-12.6c0,.82.23,1.53.7,2.14.47.61,1.06,1.09,1.78,1.44.72.35,1.45.52,2.2.52,1.1,0,2.02-.13,2.74-.38.72-.25,1.3-.53,1.73-.85.43-.31.74-.56.94-.76ZM184.99,27.74h8.28c0-.58-.15-1.15-.45-1.71-.3-.56-.74-1.03-1.31-1.4s-1.31-.56-2.2-.56c-.94,0-1.72.19-2.36.56-.64.37-1.12.84-1.46,1.4-.34.56-.5,1.13-.5,1.71Z"/>
          <path class="cls-4" d="M200.91,37.96V13.95h4.25v13.1l6.08-5.98h5l-6.34,6.23,7.06,10.66h-5.08l-4.9-7.78-1.84,1.8v5.98h-4.25Z"/>
          <path class="cls-4" d="M220.78,32.2v-7.67h-2.88v-3.46h2.88v-5.47h4.25v5.47h4.54v3.46h-4.54v7.38c0,.96.16,1.7.49,2.21.32.52.85.77,1.57.77.67,0,1.21-.1,1.6-.29.4-.19.77-.42,1.13-.68l1.8,2.63c-.84.67-1.67,1.17-2.48,1.48-.82.31-1.73.47-2.74.47-2.06,0-3.52-.58-4.36-1.73-.84-1.15-1.26-2.68-1.26-4.57Z"/>
        </g>
      </g>
      <g>
        <path class="cls-1" d="M56.94,0c-3.46,0-6.7.92-9.49,2.54,5.67,3.28,9.49,9.41,9.49,16.44s-3.82,13.16-9.49,16.44c2.79,1.61,6.03,2.54,9.49,2.54,10.48,0,18.98-8.5,18.98-18.98S67.42,0,56.94,0Z"/>
        <path class="cls-3" d="M18.98,18.98c0-7.02,3.82-13.16,9.49-16.44-2.79-1.61-6.03-2.54-9.49-2.54C8.5,0,0,8.5,0,18.98s8.5,18.98,18.98,18.98c3.46,0,6.7-.92,9.49-2.54-5.67-3.28-9.49-9.41-9.49-16.44Z"/>
        <g>
          <path class="cls-5" d="M47.45,2.54c-2.79-1.61-6.03-2.54-9.49-2.54s-6.7.92-9.49,2.54c5.67,3.28,9.49,9.41,9.49,16.44,0-7.02,3.82-13.16,9.49-16.44Z"/>
          <path class="cls-5" d="M37.96,18.98c0,7.02-3.82,13.16-9.49,16.44,2.79,1.61,6.03,2.54,9.49,2.54s6.7-.92,9.49-2.54c-5.67-3.28-9.49-9.41-9.49-16.44Z"/>
        </g>
      </g>
    </g>
  </g>
</svg>