<?xml version="1.0" encoding="UTF-8"?>
<svg id="Ebene_2" data-name="Ebene 2" xmlns="http://www.w3.org/2000/svg" xmlns:xlink="http://www.w3.org/1999/xlink" viewBox="0 0 282.94 282.12">
  <defs>
    <style>
      .cls-1 {
        fill: none;
      }

      .cls-2 {
        mask: url(#mask);
      }

      .cls-3 {
        fill: #cc5b53;
      }

      .cls-3, .cls-4, .cls-5, .cls-6, .cls-7, .cls-8, .cls-9, .cls-10, .cls-11, .cls-12, .cls-13, .cls-14, .cls-15, .cls-16, .cls-17, .cls-18, .cls-19 {
        fill-rule: evenodd;
      }

      .cls-4, .cls-20 {
        fill: #fff;
      }

      .cls-5 {
        fill: #dcae92;
      }

      .cls-6 {
        fill: #ab8b6c;
      }

      .cls-7 {
        fill: #391d80;
      }

      .cls-8 {
        fill: #140735;
      }

      .cls-9 {
        fill: #5f38fa;
      }

      .cls-10 {
        fill: #d3af95;
      }

      .cls-12 {
        fill: #b28b67;
      }

      .cls-13 {
        fill: #9082b2;
      }

      .cls-14 {
        fill: #ff7268;
      }

      .cls-15 {
        fill: #de9b28;
      }

      .cls-21, .cls-18 {
        fill: #4428b2;
      }

      .cls-16 {
        fill: #fac800;
      }

      .cls-17 {
        fill: #cba285;
      }

      .cls-22 {
        clip-path: url(#clippath);
      }

      .cls-19 {
        fill: #c8d0d7;
      }
    </style>
    <clipPath id="clippath">
      <rect class="cls-1" width="282.94" height="282.12"/>
    </clipPath>
    <mask id="mask" x="-49.69" y=".01" width="379.38" height="406.98" maskUnits="userSpaceOnUse">
      <g id="mask0_257_2833" data-name="mask0 257 2833">
        <path class="cls-20" d="M291.47.01H-8.53v119.14H1.7C.58,126.29,0,133.61,0,141.07,0,218.97,63.34,282.13,141.47,282.13s141.47-63.15,141.47-141.06c0-7.45-.58-14.77-1.7-21.92h10.23V.01Z"/>
      </g>
    </mask>
  </defs>
  <g id="Ebene_1-2" data-name="Ebene 1">
    <g class="cls-22">
      <g>
        <path class="cls-21" d="M141.47,282.12c78.13,0,141.47-63.15,141.47-141.06S219.6,0,141.47,0,0,63.15,0,141.06s63.34,141.06,141.47,141.06Z"/>
        <g class="cls-2">
          <g>
            <path class="cls-5" d="M137.92,58.76c6.7,4.04,13.29,5.99,16.38,5.2,7.75-2,8.47-30.36,2.47-41.54-6-11.18-36.84-16.06-38.39,6.1-.54,7.69,2.69,14.55,7.46,20.15l-8.55,39.87h24.85l-4.21-29.77h-.01Z"/>
            <path class="cls-12" d="M126.6,23.31c14.34.1,24.31-.5,30.02-2.07-.26-4.86-5.31-10.35-18.63-10.35-14.82,0-22.78,8.64-22.78,18.63,0,9.13,5.88,20.25,10.35,20.71,1.16-.25,2.15-1.65,3.13-3.57-1.84-.87-3.13-2.89-3.13-5.23,0-3.14,2.32-5.69,5.18-5.69,1.04,0,2,.34,2.82.91,1.88-3.03,4.24-5.3,7.54-5.06l-2.07-6.21-12.42-1.04v-1.04h0Z"/>
            <path class="cls-5" d="M109,174.45l37.92,130.68,17.84,98.11h17.9l-17.87-228.79h-55.79Z"/>
            <path class="cls-11" d="M109,174.45l37.92,130.68,17.84,98.11h17.9l-17.87-228.79h-55.79Z"/>
            <path class="cls-5" d="M91.96,174.45c2.65,67.89,1.6,104.91,1.01,111.08-.59,6.17-3.95,47.47-26.87,119.78h18.62c30.34-69.37,40.93-110.67,44.41-119.78,3.48-9.11,13.76-46.14,28.76-111.08h-65.94,0Z"/>
            <path class="cls-15" d="M108.19,174.45c9.86,44.97,26.92,116.74,51.18,215.33h26.18c1.93-101.19-6.29-167.79-20.54-215.33h-56.83.01Z"/>
            <path class="cls-16" d="M91.82,174.45c2.59,67.89-4.12,134.77-24.93,216.39h27.94c30.4-68.33,52.18-134.88,67.07-216.39h-70.08Z"/>
            <path class="cls-5" d="M229.47,186.63l-29.33-28.61-9.74,16.85,30.5,17.98c7.65,12.05,12.14,17.25,13.47,15.61,1.13-1.38.61-2.89.13-4.28-.37-1.08-.72-2.1-.24-2.92,1.08-1.88,7.21-.8,12.97.47,5.77,1.27,4.43-1.57,3.21-3.04-5.45-4.4-12.44-8.42-20.98-12.06h0ZM56.61,228.19c3.03-6.15,13.37-66.14,13.37-66.14l21.63.09s-20.04,64.68-21.63,68.64c-2.07,5.14,1.45,12.61,3.84,17.68.37.78.71,1.51,1,2.16-3.32,1.48-4.91-.31-6.59-2.2-1.9-2.14-3.9-4.39-8.63-2.2-1.83.85-3.55,1.85-5.24,2.83-5.83,3.39-11.18,6.5-18.47,2.01-1.15-.71-2.42-3.39.64-5.49,7.62-5.22,18.59-14.36,20.08-17.37h0Z"/>
            <path class="cls-8" d="M131.46,71.27l8.95-1.54c15.41,38.5,42.32,73.48,80.73,104.95l-29.02,35.26c-38.4-44.8-62.07-91.03-60.66-138.67Z"/>
            <path class="cls-4" d="M92.44,183.77h79.71s-27.7-67.36-27.7-114.44l-24.05-3.58c-18.9,30.39-24.23,67.81-27.97,118.02h.01Z"/>
            <path class="cls-8" d="M56.2,217.93c8.72-98.35,63.67-152.18,63.67-152.18l.02.02s0-.01,0-.02h1.57c2.82.1,8.58.35,8.58.35l5.81,16.6c.92,30.37,10.77,122.4,10.77,122.4h-52.18c.09,4.22.29,8.5.6,12.83h-38.85Z"/>
            <path class="cls-11" d="M94.46,205.51c-.42-18.38,1.21-35.63,3.93-51.24,1.42,18.53,4.4,40.82,10.6,51.24h-14.54,0Z"/>
            <path class="cls-10" d="M228.42,72.37c-5.66,3.41-11.23,5.06-13.84,4.39-6.55-1.69-7.15-25.65-2.08-35.1,5.07-9.45,31.13-13.57,32.44,5.15.46,6.5-2.27,12.29-6.3,17.03l7.23,33.68h-20.99l3.56-25.15h-.02Z"/>
            <path class="cls-8" d="M254.08,40.58c.68-.67,1.05-1.63,1.37-2.54.33-.95.66-1.9.88-2.89.44-1.97.44-4.23-.96-5.76-1.13-1.22-2.81-1.77-4.37-1.89-1.04-.08-2.1.07-3.1.39-.99.32-1.84.97-2.8,1.37-.04-2.12-.4-4.34-1.48-6.15-1.04-1.74-2.69-2.72-4.56-2.98-1.93-.27-3.83.19-5.56,1.12-.43.23-.86.48-1.27.76-.34.23-.7.51-1.1.61-.45.11-.67-.15-.96-.48-.34-.38-.73-.72-1.14-1.02-1.8-1.33-4.17-1.87-6.26-1.08-.96.37-1.9.99-2.55,1.84-.58.76-1,1.97-1.8,2.51-.34.23-.58-.07-.89-.29-.47-.33-.91-.7-1.38-1.02-.66-.45-1.38-.79-2.15-.97-1.13-.26-2.68-.2-3,1.27-.12.55-.03,1.15,0,1.7.05.77.11,1.53.18,2.3.05.58.11,1.14.22,1.71.06.3.24.87.11,1.17-.16.38-.91.16-1.24.18-.63.03-1.27.14-1.86.41-.45.21-.93.52-1.12,1.04-.12.32-.09.65-.03.98.07.4,0,.6-.06,1-.85-.42-3.8-1.35-4.18.18-.12.51.16,1.08.37,1.51.38.75.87,1.44,1.38,2.09,1.05,1.37,2.31,2.55,3.66,3.56-1.59.7-2,2.78-.63,4.02.61.55,1.42.67,2.19.63.28,0,.68-.12.9-.07.12.03.25.13.41.14,1.08.07,2.3-.19,3.35-.43,1.88-.43,3.66-1.32,5.11-2.67.37-.35.68-.55,1.18-.54.44,0,.87.12,1.31.14,1.16.03,2.21-.54,3.29-.92.07,1.46.48,3.06,1.08,4.38.49,1.07,1.5,1.22,2.5,1.32,3.19.3,6.39-.03,9.59-.03-3.09.7-6.29.99-9.36,1.81-1.39.37-.33,1.31.26,1.95.98,1.07,1.7,2.39,2.2,3.78,1.51-1.97,4.19-3.27,6.56-2.67,2.62.67,4.46,4.21,2.79,6.76-.97,1.48-2.73,2.05-4.19,2.68,1.14,1.18,1.41,2.93,2.1,4.41.34.73.81,1.55,1.57,1.8.28.09.61.1.83.33.27.28.34.6.69.84,1.39.97,3.57.89,4.81-.37,1.12-1.14.83-2.95-.11-4.11,1.49-.62,4.19-1.42,3.6-3.73,3.22-.21,11.03-5.43,6.71-9.25,2.37-1.34,4.55-4.61,3.03-7.5-1.17-2.22-3.9-3.22-6.14-3.33"/>
            <path class="cls-6" d="M252.85,170.12l-32.04,110.41-15.07,82.9h-15.13l15.1-193.3h47.14Z"/>
            <path class="cls-10" d="M252.85,170.12l-32.04,110.41-15.07,82.9h-15.13l15.1-193.3h47.14Z"/>
            <path class="cls-10" d="M267.25,170.12c-2.24,57.36-1.35,88.64-.85,93.85s3.34,40.11,22.7,101.2h-15.73c-25.63-58.61-34.58-93.51-37.52-101.2-2.94-7.7-11.62-38.98-24.3-93.85h55.71-.01Z"/>
            <path class="cls-7" d="M253.54,170.12c-8.33,37.99-22.75,98.64-43.24,181.93h-22.12c-1.63-85.5,5.32-141.77,17.35-181.93h48.01Z"/>
            <path class="cls-13" d="M267.36,170.12c-2.19,57.36,3.48,113.86,21.06,182.83h-23.6c-25.68-57.73-44.09-113.96-56.67-182.83h59.21Z"/>
            <path class="cls-10" d="M143.09,130.69l34.53,4.71-6.2,15.47-28.02-11.11c-12.08,1.19-17.92.9-17.52-.86.33-1.49,1.62-1.94,2.8-2.35.92-.32,1.78-.62,2.08-1.38.69-1.72-3.24-5.29-7.11-8.52-3.87-3.23-1.27-3.82.36-3.77,5.8,1.36,12.16,3.96,19.07,7.8h0ZM311.11,215.52c-2.56-5.2-24.99-72.12-24.99-72.12l-19.15.07s31.5,70.89,32.85,74.24c1.75,4.34-1.22,10.65-3.24,14.93-.31.66-.6,1.28-.85,1.83,2.8,1.25,4.15-.26,5.57-1.86,1.6-1.8,3.3-3.71,7.29-1.86,1.54.72,3,1.57,4.43,2.39,4.92,2.86,9.45,5.49,15.6,1.69.98-.6,2.04-2.87-.54-4.64-6.44-4.41-15.71-12.14-16.96-14.68h0Z"/>
            <path class="cls-3" d="M233.65,82.65l-15,1c-3.69,33.41-23.81,54.52-68.85,47.37l-5.98,43.03c42.1,5.44,79.02-11.41,86.58-57.05,1.96-11.81,3.5-24.11,3.25-34.36h0Z"/>
            <path class="cls-14" d="M308.48,206.85c-10.41-55.4-32.39-98.26-65.93-128.58h-1.5l-22.72,5.22c0,27.29-6.07,47.69-11.91,67.29-2.52,8.47-5,16.79-6.92,25.45h61.36c.86,9.93,1.4,20.13,1.67,30.61h45.95Z"/>
            <path class="cls-17" d="M59.87,108.72c5.66,3.41,11.23,5.06,13.84,4.39,6.55-1.69,7.15-25.65,2.08-35.1-5.07-9.45-31.13-13.57-32.44,5.15-.46,6.5,2.27,12.29,6.3,17.03l-7.23,33.68h20.99l-3.56-25.15h.02Z"/>
            <path class="cls-4" d="M73.02,74.79c.47.16,0-1.85-1.12-2.59-3.43-2.26-13.64-5.6-20.62-4.15-4.68.97-10.51,3.41-14.24,6.51-3.37,2.8-6.43,7.74-7.62,12.07-1.25,4.55-1.72,10.89,0,14.86,2.05,4.73,9.33,9.83,9.52,10.51.22.77-.64,3.79-1.27,6.97-.63,3.18-.34,11.28,0,12.6.55,2.11,3.49,3.15,4.77,3.3,7.09.84,12.22,9.64,14.36,11.89,0,0,14.27,14.33,19.92,12.46.99-.33-4.27-13.09-5.26-18.18-.99-5.09-6.94-13.27-7.56-16.26-.37-1.76-.43-4.83-.47-4.97-.92-6.32-.76-6.83-2.1-9.41-1.34-2.58-2.37-2.73-2.05-3.48,1.57-3.67,6.62-14.88,7.77-18.55,1.37-4.37.72-2.94,2.13-7.29.62-1.93,1.42-7.13,3.84-6.32v.03Z"/>
            <path class="cls-17" d="M40.69,206.47l42.93,108.66,28.79,91.86h11.37l-45.77-200.52h-37.33.01Z"/>
            <path class="cls-17" d="M32.04,206.47c-.46,38.18-7.12,89.59-8.19,91.97-1.07,2.38-73.54,60.54-73.54,60.54l7.83,8.38s85.52-49.86,89.47-56.51c3.96-6.65,16.84-67.85,27.18-104.38h-42.76,0Z"/>
            <path class="cls-8" d="M69.55,397.53l54.06-5.87-43.56-185.19h-44.92l34.42,191.06Z"/>
            <path class="cls-7" d="M-38.51,345.46L-3.05,387.43s56.02-61.19,65.32-79.85c9.3-18.66,16.72-101.11,16.72-101.11H24.48s-4.05,72.53-5.46,75.91-57.53,63.08-57.53,63.08Z"/>
            <path class="cls-17" d="M137.23,216.76l-24.78-24.17-8.23,14.24,25.77,15.19c6.46,10.18,10.25,14.57,11.38,13.19.95-1.17.52-2.44.11-3.62-.31-.92-.6-1.77-.2-2.47.92-1.58,6.09-.68,10.96.39,4.87,1.07,3.75-1.32,2.71-2.57-4.61-3.72-10.51-7.11-17.72-10.19h0ZM-8.82,251.88c2.56-5.2,11.29-55.88,11.29-55.88l18.28.07S3.82,250.72,2.47,254.06c-1.75,4.34,1.22,10.65,3.24,14.93.31.66.6,1.28.85,1.83-2.8,1.25-4.15-.26-5.57-1.86-1.6-1.8-3.3-3.71-7.29-1.86-1.54.72-3,1.57-4.43,2.39-4.92,2.86-9.45,5.49-15.6,1.69-.98-.6-2.04-2.87.54-4.64,6.44-4.41,15.71-12.14,16.96-14.68v.02Z"/>
            <path class="cls-9" d="M54.41,119.3l7.56-1.3c13.02,32.53,35.76,62.09,68.2,88.67l-24.52,29.79c-32.44-37.85-52.44-76.91-51.25-117.16h0Z"/>
            <path class="cls-19" d="M21.44,214.35h67.35s-23.41-56.91-23.41-96.69l-20.32-3.03c-15.97,25.68-20.48,57.3-23.63,99.71h.01Z"/>
            <path class="cls-9" d="M-9.17,243.21C-1.8,160.11,44.63,114.63,44.63,114.63h1.35c2.38.08,7.25.3,7.25.3l4.91,14.03c.78,25.66,9.1,103.41,9.1,103.41H23.15c.07,3.57.24,7.18.51,10.84H-9.17Z"/>
            <path class="cls-18" d="M23.16,232.71c-.35-15.53,1.03-30.1,3.32-43.29,1.2,15.65,3.71,34.49,8.96,43.29h-12.28Z"/>
          </g>
        </g>
        <path class="cls-3" d="M260.86,176.24c-1.76-20.21-4.9-39.28-10.1-57.21,1.14,19.17,1.45,42.95-2.37,57.21h12.47Z"/>
      </g>
    </g>
  </g>
</svg>