<?xml version="1.0" encoding="UTF-8"?> <svg xmlns="http://www.w3.org/2000/svg" xmlns:xlink="http://www.w3.org/1999/xlink" id="Ebene_1" viewBox="0 0 507 403"><defs><style>.cls-1{fill:none;}.cls-2{fill:#5f38fa;}.cls-3,.cls-4,.cls-5,.cls-6,.cls-7,.cls-8,.cls-9,.cls-10{fill-rule:evenodd;}.cls-3,.cls-11{fill:#ff7268;}.cls-4{fill:#cc5b53;}.cls-5{fill:#e4e4e4;}.cls-6{fill:#d3af95;}.cls-8{fill:#391d80;}.cls-12{fill:#4428b2;}.cls-9{fill:#ff7268;}.cls-10{fill:#140735;}.cls-13{clip-path:url(#clippath);}</style><clipPath id="clippath"><rect class="cls-1" x="76.54" y="79.17" width="303.55" height="293.08"></rect></clipPath></defs><rect class="cls-12" x="45.14" y="177.29" width="293.08" height="194.95" rx="5.23" ry="5.23"></rect><rect class="cls-11" x="186.45" y="30.76" width="320.55" height="227.66" rx="5.23" ry="5.23"></rect><rect class="cls-2" y="143.28" width="96.82" height="62.8" rx="5.23" ry="5.23"></rect><g class="cls-13"><path class="cls-8" d="M233.34,79.6c-13.81,0-25,11.24-25,25.1v24.52c0,12.92,9.72,23.56,22.22,24.95,0,.06,0,.12.01.18h33.73c5.33-5.23.11-38.57-3.9-53.4-1.8-12.09-12.19-21.36-24.73-21.36h-2.33Z"></path><path class="cls-6" d="M235.01,135.94c7.53,4.56,14.93,6.76,18.41,5.86,8.71-2.25,9.51-34.25,2.77-46.86-6.74-12.61-41.39-18.11-43.13,6.88-.61,8.67,3.02,16.41,8.38,22.73l-9.61,44.97h27.91l-4.73-33.58Z"></path><path class="cls-8" d="M209.36,101.97c.81-.8,1.59-1.58,2.37-2.28l-.04-.91s8.76-18.01,22.23-18.01,17.71,6.28,21.33,11.62h.01c-1.89,6.53-7.6,9.17-14.04,12.15-2.78,1.28-5.69,2.63-8.5,4.38-1.1-.9-2.5-1.44-4.03-1.44-3.53,0-6.4,2.88-6.4,6.42s2.86,6.42,6.4,6.42c.1,0,.19,0,.29,0,1.29,13.87.77,29.71-3.06,33.47h-33.73c-.97-16.89,3.38-21.71,7.83-26.63,4.18-4.63,8.45-9.36,8.45-24.32.3-.29.6-.59.89-.88Z"></path><path class="cls-6" d="M202.52,266.43l42.6,147.39,20.04,110.66h20.11l-20.08-258.05h-62.68Z"></path><path class="cls-7" d="M202.52,266.43l42.6,147.39,20.04,110.66h20.11l-20.08-258.05h-62.68Z"></path><path class="cls-6" d="M183.37,266.43c2.97,76.57,1.8,118.33,1.14,125.29-.67,6.96-4.44,53.55-30.18,135.1h20.92c34.09-78.24,45.98-124.83,49.89-135.1,3.91-10.27,15.45-52.04,32.31-125.29h-74.08Z"></path><path class="cls-5" d="M201.6,266.43c11.08,50.72,30.25,131.67,57.5,242.87h29.42c2.17-114.13-7.07-189.25-23.08-242.87h-63.84Z"></path><path class="cls-3" d="M183.22,266.43c2.91,76.57-4.63,152-28,244.06h31.39c34.15-77.07,58.62-152.13,75.35-244.06h-78.73Z"></path><path class="cls-6" d="M351.66,215.87l-42.14,18.58,13.46,17.31,31.56-24.3c15.76-2.91,23.08-5.4,21.93-7.49-.96-1.76-2.75-1.86-4.41-1.95-1.29-.07-2.49-.14-3.14-.98-1.5-1.93,2.2-7.88,5.95-13.37,3.75-5.5.24-5.3-1.82-4.64-6.88,3.84-14,9.45-21.39,16.84ZM162.98,244.32l-23.83-4.75c-16.16,42.77-25.8,66.21-28.91,70.31-2.28,3.01-16.34,10.76-25.86,14.91-3.82,1.66-3,4.9-1.88,5.94,7.07,6.54,13.64,4.25,20.79,1.75,2.07-.72,4.19-1.46,6.38-2.01,5.68-1.42,7.41,1.52,9.04,4.29,1.45,2.45,2.82,4.78,6.79,3.85-.18-.78-.4-1.66-.64-2.61-1.55-6.12-3.83-15.14-.44-20.39,1.74-2.69,14.59-26.46,38.56-71.3Z"></path><path class="cls-4" d="M227.75,150.05l10.06-1.73c21.9,21.33,30.84,72.58,45.44,79.37,13.8,6.42,33.37.21,56.62-8.17l7.12,15.98c-21.13,22.95-66.14,42.34-84.39,31.27-29.17-17.7-35.91-80.91-34.85-116.71Z"></path><path class="cls-10" d="M183.91,276.94h88.98c4.07,0,3.3-5.89,2.71-8.87-6.78-34.33-33.26-71.33-33.26-120.2l-25.67-4.04c-21.23,34.28-28.57,76.49-32.76,133.11Z"></path><path class="cls-9" d="M215.31,143.82h-.29c-57.57,35.62-92.36,90.83-104.38,165.64l18.65,3.67c12.36-14.45,27.6-38.1,45.74-70.95-5.56,19.79-9.63,40.09-10.9,59.28h80.1c15.51-39.34-19.06-157.63-19.06-157.63h-9.87Z"></path></g></svg> 