<?xml version="1.0" encoding="UTF-8"?>
<svg xmlns="http://www.w3.org/2000/svg" xmlns:xlink="http://www.w3.org/1999/xlink" viewBox="0 0 1080 1920">
  <defs>
    <style>
      .cls-1 {
        letter-spacing: 0em;
      }

      .cls-2 {
        fill: url(#Unbenannter_Verlauf_7);
      }

      .cls-3 {
        fill: #ff7268;
      }

      .cls-4 {
        opacity: .6;
      }

      .cls-4, .cls-5, .cls-6 {
        font-family: Effra-Medium, Effra;
        font-weight: 500;
      }

      .cls-4, .cls-5, .cls-6, .cls-7 {
        fill: #fff;
      }

      .cls-4, .cls-5, .cls-7 {
        font-size: 36px;
      }

      .cls-8 {
        fill: #140735;
      }

      .cls-6 {
        font-size: 48px;
      }

      .cls-9 {
        fill: #f9c801;
      }

      .cls-7 {
        font-family: Effra-Regular, Effra;
      }

      .cls-10 {
        letter-spacing: 0em;
      }

      .cls-11 {
        letter-spacing: 0em;
      }

      .cls-12 {
        fill: #ff923a;
      }

      .cls-13 {
        letter-spacing: -.08em;
      }

      .cls-14 {
        letter-spacing: -.13em;
      }

      .cls-15 {
        letter-spacing: -.02em;
      }

      .cls-16 {
        letter-spacing: -.02em;
      }

      .cls-17 {
        letter-spacing: -.02em;
      }

      .cls-18 {
        letter-spacing: -.02em;
      }

      .cls-19 {
        letter-spacing: -.02em;
      }

      .cls-20 {
        letter-spacing: -.01em;
      }

      .cls-21 {
        letter-spacing: -.02em;
      }

      .cls-22 {
        letter-spacing: -.04em;
      }

      .cls-23 {
        letter-spacing: -.03em;
      }

      .cls-24 {
        fill: #6038f8;
      }

      .cls-25 {
        letter-spacing: 0em;
      }

      .cls-26 {
        letter-spacing: 0em;
      }

      .cls-27 {
        letter-spacing: .02em;
      }

      .cls-28 {
        fill: #586ff1;
      }
    </style>
    <linearGradient id="Unbenannter_Verlauf_7" data-name="Unbenannter Verlauf 7" x1="540" y1="665.27" x2="540" y2="481.49" gradientUnits="userSpaceOnUse">
      <stop offset="0" stop-color="#4d4ccb"/>
      <stop offset="1" stop-color="#6b66cd"/>
    </linearGradient>
  </defs>
  <g id="Ebene_2" data-name="Ebene 2">
    <rect class="cls-8" width="1080" height="1920"/>
  </g>
  <g id="Ebene_1" data-name="Ebene 1">
    <rect class="cls-12" x="154.05" y="1233.47" width="760" height="118.6" rx="27.73" ry="27.73"/>
    <text class="cls-6" transform="translate(311.35 1438.49)"><tspan class="cls-20" x="0" y="0">c</tspan><tspan x="22.9" y="0">ode</tspan><tspan class="cls-17" x="103.1" y="0">t</tspan><tspan class="cls-11" x="121.44" y="0">ekt</tspan><tspan class="cls-16" x="191.13" y="0">.</tspan><tspan x="203.28" y="0">o</tspan><tspan class="cls-25" x="230.92" y="0">r</tspan><tspan x="248.78" y="0">g/</tspan><tspan class="cls-26" x="295.87" y="0">f</tspan><tspan class="cls-1" x="311.71" y="0">all/100</tspan></text>
    <text class="cls-7" transform="translate(208.25 1208.66)"><tspan x="0" y="0">DIE BEWE</tspan><tspan class="cls-18" x="154.76" y="0">R</tspan><tspan x="175.28" y="0">TUNG UNSERER </tspan><tspan class="cls-21" x="440.02" y="0">C</tspan><tspan x="463.78" y="0">OMMUNI</tspan><tspan class="cls-27" x="607.1" y="0">T</tspan><tspan x="630.35" y="0">Y</tspan></text>
    <text class="cls-7" transform="translate(251.72 1306.09)"><tspan x="0" y="0">EHER NICHT VE</tspan><tspan class="cls-18" x="250.34" y="0">R</tspan><tspan x="270.86" y="0">TR</tspan><tspan class="cls-22" x="314.46" y="0">A</tspan><tspan x="336.2" y="0">UENSWÜRDIG</tspan></text>
    <g>
      <g>
        <path class="cls-2" d="M160,665.27v-124.25c0-32.87,26.65-59.52,59.52-59.52h147.42c13.8,0,27.33,3.75,39.17,10.85l58.83,35.3c11.83,7.1,25.37,10.85,39.17,10.85h356.37c32.87,0,59.52,26.65,59.52,59.52v55.57"/>
        <rect class="cls-28" x="160" y="588.18" width="760" height="522.72" rx="55.84" ry="55.84"/>
      </g>
      <text class="cls-7" transform="translate(205.05 549.42)"><tspan class="cls-13" x="0" y="0">F</tspan><tspan x="15.98" y="0">ALL 100</tspan></text>
      <text class="cls-4" transform="translate(202.36 1076.01)"><tspan x="0" y="0">Arti</tspan><tspan class="cls-23" x="60.55" y="0">k</tspan><tspan x="77.9" y="0">el auf nius</tspan><tspan class="cls-16" x="234.61" y="0">.</tspan><tspan x="243.72" y="0">d</tspan><tspan class="cls-18" x="263.77" y="0">e</tspan><tspan x="282.42" y="0">, 15.Mai 2026</tspan></text>
      <text class="cls-6" transform="translate(202.36 669.25)"><tspan x="0" y="0">MDR: </tspan><tspan class="cls-14" x="122.21" y="0">T</tspan><tspan class="cls-1" x="145.92" y="0">schechien schickt </tspan><tspan x="0" y="57.6">Botschaf</tspan><tspan class="cls-17" x="189.07" y="57.6">t</tspan><tspan x="207.41" y="57.6">er aus </tspan><tspan class="cls-15" x="342.52" y="57.6">R</tspan><tspan x="369.45" y="57.6">ussland </tspan><tspan x="0" y="115.2">zurück</tspan></text>
    </g>
    <g>
      <text class="cls-5" transform="translate(775.74 467.43)"><tspan class="cls-19" x="0" y="0">c</tspan><tspan class="cls-10" x="17.17" y="0">ode</tspan><tspan class="cls-18" x="77.33" y="0">t</tspan><tspan class="cls-10" x="91.08" y="0">ekt</tspan></text>
      <g>
        <path class="cls-3" d="M744.31,429.47c-3.46,0-6.7.92-9.49,2.54,5.67,3.28,9.49,9.41,9.49,16.44s-3.82,13.16-9.49,16.44c2.79,1.61,6.03,2.54,9.49,2.54,10.48,0,18.98-8.5,18.98-18.98s-8.5-18.98-18.98-18.98Z"/>
        <path class="cls-9" d="M706.35,448.45c0-7.02,3.82-13.16,9.49-16.44-2.79-1.61-6.03-2.54-9.49-2.54-10.48,0-18.98,8.5-18.98,18.98s8.5,18.98,18.98,18.98c3.46,0,6.7-.92,9.49-2.54-5.67-3.28-9.49-9.41-9.49-16.44Z"/>
        <g>
          <path class="cls-24" d="M734.82,432.01c-2.79-1.61-6.03-2.54-9.49-2.54s-6.7.92-9.49,2.54c5.67,3.28,9.49,9.41,9.49,16.44,0-7.02,3.82-13.16,9.49-16.44Z"/>
          <path class="cls-24" d="M725.33,448.45c0,7.02-3.82,13.16-9.49,16.44,2.79,1.61,6.03,2.54,9.49,2.54s6.7-.92,9.49-2.54c-5.67-3.28-9.49-9.41-9.49-16.44Z"/>
        </g>
      </g>
    </g>
  </g>
</svg>