<?xml version="1.0" encoding="UTF-8"?>
<svg id="Ebene_2" data-name="Ebene 2" xmlns="http://www.w3.org/2000/svg" xmlns:xlink="http://www.w3.org/1999/xlink" viewBox="0 0 507.02 320.39">
  <defs>
    <style>
      .cls-1 {
        fill: none;
      }

      .cls-2 {
        fill: #dcae92;
      }

      .cls-2, .cls-3, .cls-4, .cls-5, .cls-6, .cls-7, .cls-8, .cls-9, .cls-10, .cls-11, .cls-12 {
        fill-rule: evenodd;
      }

      .cls-13, .cls-4 {
        fill: #140735;
      }

      .cls-3 {
        fill: #391d80;
      }

      .cls-14 {
        fill: #fe7166;
      }

      .cls-5 {
        fill: #915b3c;
      }

      .cls-6 {
        fill: #5f38fa;
      }

      .cls-8 {
        fill: #f2f2f2;
      }

      .cls-9 {
        fill: #de9b28;
      }

      .cls-15, .cls-11 {
        fill: #4428b2;
      }

      .cls-10 {
        fill: #fac800;
      }

      .cls-16 {
        clip-path: url(#clippath);
      }

      .cls-12 {
        fill: #2c1b18;
      }
    </style>
    <clipPath id="clippath">
      <path class="cls-1" d="M506.93,201.65h.07V0H.07v201.65c-.04,1.29-.07,2.59-.07,3.89,0,63.43,51.57,114.85,115.19,114.85s115.19-51.42,115.19-114.85c0-1.3-.03-2.6-.07-3.89h46.4c-.04,1.29-.07,2.59-.07,3.89,0,63.43,51.57,114.85,115.19,114.85s115.19-51.42,115.19-114.85c0-1.3-.03-2.6-.07-3.89h-.02Z"/>
    </clipPath>
  </defs>
  <g id="Ebene_1-2" data-name="Ebene 1">
    <g>
      <ellipse id="Oval_2" data-name="Oval 2" class="cls-15" cx="391.81" cy="205.54" rx="115.19" ry="114.85"/>
      <ellipse id="Oval_2-2" data-name="Oval 2-2" class="cls-13" cx="115.19" cy="205.54" rx="115.19" ry="114.85"/>
      <path class="cls-5" d="M218.17,182.28c1.83.29,4.84,0,.95-4.17-3.9-4.16-7.81-8.72-6.79-10.54.45-.8,1.46-1.01,2.54-1.24,1.39-.29,2.9-.61,3.49-2.23.7-1.92-5.84-3.08-19.61-3.48l-29.98-16.45-9.19,16.41,38.23,10.23c7.23,5.29,14.02,9.11,20.36,11.47h0Z"/>
      <path id="Coat_Back" data-name="Coat Back" class="cls-11" d="M107.37,90.95c23.58,28.19,53.22,47.41,94.11,65.29l-10.35,18.02c-42.88-6.55-65.74-11.12-82.27-38.94-4.15-6.98-10.93-30.58-15.09-42.88l13.6-1.49h0Z"/>
      <path class="cls-2" d="M328.55,99.38c-1.71-.71-4.71-1.15-1.91,3.82s5.52,10.32,4.1,11.85c-.63.67-1.66.64-2.76.6-1.42-.05-2.96-.1-3.92,1.33-1.13,1.7,4.94,4.37,18.23,8.04l25.22,23.09,12.82-13.76-34.71-19.01c-5.77-6.85-11.46-12.18-17.06-15.97h-.01Z"/>
      <g id="Group_3" data-name="Group 3">
        <path id="Mask" class="cls-9" d="M388.14,152.76c-14.67.41-31.45-9.32-43.38-21.16l6.79-15.15c17.3,10.98,33.51,13.55,45.67,13.68,8.39,8.32,2.48,22.31-9.08,22.63h0Z"/>
      </g>
      <ellipse id="Oval_2-3" data-name="Oval 2-3" class="cls-14" cx="253.5" cy="100.92" rx="101.21" ry="100.92"/>
      <g class="cls-16">
        <g>
          <g id="Master_Pose_Standing" data-name="Master Pose Standing">
            <g id="Head_Front" data-name="Head Front">
              <g id="Head_Front_Long" data-name="Head Front Long">
                <path id="Hair_Back" data-name="Hair Back" class="cls-12" d="M411.46,36.66c-10.78,0-19.71,7.94-21.26,18.29-3.45,12.7-7.94,41.25-3.36,45.73h29v-.15c10.75-1.19,19.11-10.3,19.11-21.37v-21c0-11.87-9.63-21.5-21.5-21.5h-2,0Z"/>
                <g id="Head">
                  <path id="SKIN" class="cls-2" d="M407.96,113.66h24l-8.26-38.51c4.61-5.41,7.73-12.04,7.21-19.46-1.5-21.4-31.29-16.69-37.09-5.89-5.79,10.8-5.11,38.2,2.38,40.13,2.99.77,9.35-1.12,15.82-5.02l-4.06,28.76h0Z"/>
                </g>
                <path id="Hair_Front" data-name="Hair Front" class="cls-12" d="M434.08,55.81c.25.25.51.5.76.75,0,12.81,3.67,16.86,7.27,20.83,3.82,4.22,7.56,8.34,6.73,22.81h-29c-3.3-3.22-3.74-16.78-2.63-28.66h.25c3.04,0,5.5-2.46,5.5-5.5s-2.46-5.5-5.5-5.5c-1.31,0-2.52.46-3.47,1.23-2.41-1.5-4.92-2.65-7.31-3.75-5.55-2.55-10.45-4.81-12.08-10.39h0c3.11-4.58,6.77-9.96,18.34-9.96s19.11,15.42,19.11,15.42l-.03.78c.67.6,1.34,1.26,2.04,1.95h.02Z"/>
              </g>
            </g>
            <g id="Lower_Body_Standing" data-name="Lower Body Standing">
              <g id="Lower_Body_Standing_Shorts" data-name="Lower Body Standing Shorts">
                <path id="SKIN-2" class="cls-2" d="M389.07,196.66l-19.26,227.65h14.29l18.23-104.62,37.63-123.02h-50.89Z"/>
                <path id="Shadow" class="cls-7" d="M389.07,196.66l-19.26,227.65h14.29l18.23-104.62,37.63-123.02h-50.89Z"/>
                <path id="SKIN-3" class="cls-2" d="M396.73,196.66c14.49,64.62,23.42,101.46,26.78,110.53,3.36,9.06,13.35,44.93,42.66,113.95l15.23,5.23c-18.54-75.25-26.38-115.04-26.95-121.18-.57-6.14-3.58-40.98-1.02-108.53h-56.7Z"/>
                <path id="Bottom" class="cls-4" d="M387.38,196.66l-7.29,62.68h48.87l16-62.68h-57.58Z"/>
                <path id="Bottom-2" class="cls-3" d="M393.38,196.66l13.71,62.68h49.87s4.9-39.01-3-62.68h-60.58Z"/>
              </g>
            </g>
            <g id="Upper_Body" data-name="Upper Body">
              <g id="Upper_Body_Pointing_Forward" data-name="Upper Body Pointing Forward">
                <path class="cls-2" d="M310.05,129.73c-.96-.44-.82,1.09-.65,2.97.24,2.61.53,5.88-1.99,5.36-1.87-.39-4.92-2.08-7.91-3.74-3.93-2.18-7.78-4.33-8.82-3.42-2.7,2.36-.29,9.62,2.54,13.23,5.29,6.74,9.68,9.05,20.51,12.07,8.5,2.37,18.37,9.5,18.37,9.5l.87-15.3-15.25-8.38s-3.21-12.21-7.67-12.29h0Z"/>
                <g id="Group_27" data-name="Group 27">
                  <path id="Mask-2" class="cls-10" d="M384.49,227.26c-4.46-9.49-5.79-19.89-5.21-30.8-18.4-.4-40.74-6.47-66.8-20.08-.85-9.96,10.45-33.34,10.45-33.34,0,0,44.78,15.93,64.94,11.36,1.2-4.05,2.44-8.11,3.69-12.17,5.33-17.37,10.62-34.62,11.86-50.56h27.74c3.04,0,23.72,39.64,23.74,65.4,0,8.84,3.11,16.47,6.37,24.51,5.41,13.33,11.28,27.77,4.22,50.7-6.29-1.24-16.91.15-28.47,1.65-21.63,2.82-46.55,6.07-52.53-6.65v-.02Z"/>
                </g>
              </g>
            </g>
          </g>
          <g id="Master_Pose_Standing-2" data-name="Master Pose Standing-2">
            <g id="Head_Front-2" data-name="Head Front-2">
              <g id="Head_Front_Curly" data-name="Head Front Curly">
                <g id="Head-2">
                  <path id="SKIN-4" class="cls-5" d="M103.32,80.9c6.48,3.9,12.84,5.79,15.82,5.02,7.49-1.93,8.18-29.33,2.38-40.13-5.79-10.8-35.59-15.51-37.09,5.89-.52,7.43,2.6,14.06,7.21,19.46l-8.26,38.51h24l-4.06-28.76h0Z"/>
                </g>
                <path id="hair" class="cls-12" d="M132.17,30.82c-.5-1.75-1.83-3.24-3.64-3.69-.44-.11-.89-.15-1.34-.13-.16,0-.21.05-.28-.06-.06-.08-.06-.29-.08-.39-.07-.31-.16-.61-.27-.9-.38-1-1.01-1.89-1.77-2.64-1.43-1.4-3.36-2.36-5.36-2.54-1.1-.1-2.19.08-3.22.44-.54.18-1.06.41-1.57.67-.15.08-.65.45-.8.43-.17-.03-.51-.45-.65-.55-1.7-1.31-3.8-1.82-5.92-1.8-2.39.02-4.7.14-6.69,1.6-.42.31-.82.65-1.21,1-.2.19-.4.38-.58.58-.11.12-.22.25-.33.38-.18.22-.15.29-.4.14-.96-.58-2.07-.86-3.19-.72-.67.08-1.31.28-1.93.54-.21.09-.69.45-.92.45s-.7-.33-.93-.41c-1.23-.45-2.56-.57-3.85-.36-1.33.22-2.65.75-3.78,1.49-.54.35-1.02.75-1.4,1.27-.16.23-.31.47-.5.68-.11.12-.33.25-.38.41.04-.09-1.46-.67-1.6-.71-.75-.2-1.52-.16-2.25.09-1.38.46-2.57,1.48-3.55,2.52-.5.54-.94,1.13-1.32,1.77-.18.3-.34.62-.49.93-.07.15-.12.35-.22.49-.12.18-.21.18-.43.26-1.13.4-2.17,1.07-2.95,1.98-.8.92-1.31,2.05-1.53,3.24-.01.07-.02.36-.06.4-.06.05-.28.03-.37.04-.3.03-.59.09-.89.16-.54.13-1.06.32-1.56.56-1.93.96-3.32,2.75-3.99,4.77-.71,2.12-.7,4.55.15,6.62.14.34.3.66.49.97.12.19.16.19.08.39-.09.22-.24.44-.34.65-.33.7-.56,1.45-.71,2.21-.24,1.25-.36,2.57-.12,3.83.11.59.3,1.16.59,1.68.15.27.32.52.52.75.1.12.21.24.32.35.06.06.15.12.2.19.13.17.16.03.09.28-.1.35-.32.7-.45,1.05-.14.35-.26.71-.38,1.08-.23.74-.43,1.49-.55,2.25-.24,1.46-.19,3.02.5,4.37.3.57.72,1.08,1.24,1.47.25.19.53.36.81.49.15.07.33.1.4.24.07.15-.03.46-.06.63-.21,1.49-.32,3.05.12,4.51.41,1.34,1.3,2.53,2.47,3.31,2.26,1.52,5.31,1.44,7.68.22.62-.32,1.2-.71,1.71-1.18,1.32,1.77,4.02,1.71,5.94,1.21,2.39-.63,4.32-2.29,5.42-4.48,1.51,1.84,4.69,1.25,5.74-.75.26-.49.41-1.03.48-1.57.04-.29.01-.58.04-.86.04-.36.28-.72.42-1.07.27-.68.44-1.39.45-2.13,0-.38-.05-.76-.08-1.14-.03-.34.06-.66.12-1-.61.1-1.36-.06-1.94-.24-.57-.17-1.1-.63-1.5-1.06-.93-.98-1.5-2.26-1.89-3.53-.85-2.8-.5-6.15,2.31-7.68,1.31-.71,5.23-.71,6.79-.36,1.64.37,3.5,3.99,3.59,4.33.06.21.03.47.22.61.43.31,1.13-.23,1.44-.49.54-.46.93-1.06,1.26-1.68.73-1.34,1.32-2.78,1.73-4.24.32-1.13.52-2.3.94-3.4.42-1.1,1.07-2.08,2.09-2.7,1.11-.68,2.38-1.03,3.6-1.46,1.21-.42,2.39-.94,3.33-1.83.21-.2.41-.4.57-.64.13-.18.26-.53.46-.65.31-.18.76.29,1.03.46,1.32.84,2.42,2.01,3.31,3.29.88,1.27,1.61,2.49,2.2,3.91.44,1.05.71,2.4,1.48,3.26.34.39,2.89.62,3.72.28.83-.34,1.75-1.21,2.03-1.76.28-.56.35-1.18.23-1.79-.07-.36-.22-.7-.3-1.05-.07-.3-.13-.58-.27-.85-.27-.52-.74-.89-1.31-1.04.59-.54,1.08-1.19,1.41-1.92.35-.75.65-1.67.73-2.5.07-.67-.04-1.37-.4-1.95-.39-.61-1.07-1-1.66-1.38.9-.71,1.68-1.57,2.31-2.52,1.24-1.85,2-4.18,1.37-6.39h.03Z"/>
              </g>
            </g>
            <g id="Lower_Body_Standing-2" data-name="Lower Body Standing-2">
              <g id="Lower_Body_Standing_Skinny_Jeans" data-name="Lower Body Standing Skinny Jeans">
                <path id="Leg" class="cls-9" d="M75.39,192.65l36.26,127.23,26.45,93.77h19.29l-28.11-221h-53.89,0Z"/>
                <path id="Leg-2" class="cls-10" d="M65.69,192.65c-.84,65.57-3.7,101.34-4.58,107.3-.88,5.96-14.19,43.86-39.94,113.7h19.99c32.78-67,51.07-104.9,54.89-113.7,3.82-8.8,15.6-44.56,33.34-107.3h-63.7Z"/>
              </g>
            </g>
            <g id="Upper_Body-2" data-name="Upper Body-2">
              <g id="Upper_Body_Pointing_Up" data-name="Upper Body Pointing Up">
                <path class="cls-5" d="M198.45,78.8l-15.25,8.38.87,15.3s9.88-7.13,18.37-9.5c10.83-3.02,15.21-5.33,20.51-12.07,2.83-3.61,5.24-10.86,2.54-13.23-1.03-.91-4.89,1.23-8.82,3.42-3,1.66-6.04,3.35-7.91,3.74-2.52.52-2.23-2.75-1.99-5.36.17-1.87.31-3.41-.65-2.97-4.46.08-7.67,12.29-7.67,12.29h0Z"/>
                <path id="Shirt" class="cls-8" d="M59.39,201.65h77s-26.16-79.79-26.73-109.53c-.02-1.01-1.89-2.79-2.71-2.56-9.06,2.56-19.39-1.91-19.39-1.91-18.25,29.36-24.57,65.5-28.17,114Z"/>
                <path id="Coat_Front" data-name="Coat Front" class="cls-6" d="M106.88,132.45c12.03,51.59,11.47,93.82-15.08,93.82h-41.06c-6.52-43.82,10.62-104.58,26.5-135.23.61-1.17,1.9-3.38,4.94-3.38h11.93s.01.03.02.05c3.59.03,7.54.16,11.82.3,22.04.73,52.77,1.75,87.36-9.35l4.08,20.37c-31.21,20.07-62.82,35.63-90.51,33.42Z"/>
              </g>
            </g>
          </g>
        </g>
      </g>
    </g>
  </g>
</svg>