<svg width="366" height="576" viewBox="0 0 366 576" fill="none" xmlns="http://www.w3.org/2000/svg">
<g clip-path="url(#clip0_6_247)">
<path fill-rule="evenodd" clip-rule="evenodd" d="M149.191 57.1742C140.735 51.4026 133.927 43.3743 131.889 32.8942C126.035 2.64734 169.441 -1.97431 181.539 10.8275C193.659 23.6292 202.852 61.8827 193.117 67.3722C189.236 69.5637 179.631 69.325 169.138 66.3524L185.485 104.693L151.944 113.697L149.191 57.1959V57.1742Z" fill="#B28B67"/>
<path fill-rule="evenodd" clip-rule="evenodd" d="M160.834 28.6197C166.861 46.0215 172.65 53.9846 178.157 52.5092C186.418 50.296 192.033 43.2007 195.676 42.2243C198.321 41.5083 198.603 44.9583 197.497 47.8658C196.587 50.2526 190.06 54.0931 190.906 57.1959C191.73 60.3204 196.652 56.4148 197.15 58.2591C197.974 61.3185 200.489 66.7864 195.134 68.2185C189.735 69.6722 173.713 71.8637 168.921 64.6166C165.82 59.9298 161.874 49.5799 157.039 33.5669C156.693 33.6103 156.367 33.6754 156.02 33.7838C151.381 35.0206 148.627 39.7508 149.863 44.3507C150.492 46.6941 152.009 48.5384 153.982 49.6233C152.768 52.8563 151.359 56.2846 149.646 59.8864C138.784 56.827 126.664 42.1158 131.607 23.9764C132.084 15.6227 137.526 10.2416 143.792 6.53125C148.67 2.77751 154.286 0.998278 159.446 1.08507C169.073 -0.629066 178.244 -0.0432244 181.084 0.998276C183.448 9.82933 182.429 12.9321 167.62 16.6425C164.498 19.5066 162.59 23.5207 160.834 28.598V28.6197Z" fill="white"/>
<path fill-rule="evenodd" clip-rule="evenodd" d="M168.271 230.584L239.299 409.809L286.934 561.325H305.753L232.925 230.584H168.271Z" fill="#997659"/>
<path fill-rule="evenodd" clip-rule="evenodd" d="M153.982 230.584C153.223 293.573 142.187 378.369 140.431 382.296C139.26 384.921 98.6942 418.206 18.7544 482.15L31.72 495.971C126.056 441.141 175.404 410.069 179.762 402.757C186.309 391.8 207.622 290.839 224.751 230.584H154.004H153.982Z" fill="#B28B67"/>
<path fill-rule="evenodd" clip-rule="evenodd" d="M16.9116 477.485C12.5536 479.025 9.56156 480.479 7.91376 481.868C5.91906 483.538 3.27391 486.337 0 490.221C1.95134 492.543 19.4267 513.395 52.4693 552.798C59.2123 549.912 61.3154 546.527 58.8003 542.665C56.2853 538.803 54.2472 535.57 52.6428 532.966L41.2166 492.999C40.9998 492.239 40.1976 491.784 39.417 492.001C39.417 492.001 39.3954 492.001 39.3737 492.001L33.2812 493.932C29.0533 491.957 26.0829 489.961 24.3917 487.921C23.0041 486.272 21.7683 483.43 20.6625 479.416C20.2289 477.875 18.6461 476.964 17.1067 477.398C17.0417 477.398 16.9766 477.441 16.9116 477.463V477.485Z" fill="#FF7268"/>
<path fill-rule="evenodd" clip-rule="evenodd" d="M279.258 554.491C277.632 558.808 276.83 562.063 276.83 564.19C276.83 566.793 277.263 570.612 278.131 575.624H359.762C361.887 568.616 360.651 564.819 356.098 564.255C351.523 563.691 347.728 563.191 344.715 562.736L306.772 545.811C306.035 545.486 305.189 545.811 304.864 546.549C304.864 546.549 304.864 546.571 304.864 546.593L302.436 552.516C298.208 554.491 294.76 555.489 292.115 555.489C289.969 555.489 286.998 554.621 283.204 552.885C281.752 552.212 280.039 552.863 279.367 554.317C279.345 554.382 279.302 554.447 279.28 554.512L279.258 554.491Z" fill="#FF7268"/>
<path fill-rule="evenodd" clip-rule="evenodd" d="M216.035 545.725L305.471 536.047L239.169 230.584H159.056L216.013 545.725H216.035Z" fill="#4428B2"/>
<path fill-rule="evenodd" clip-rule="evenodd" d="M37.2488 459.844L95.919 529.082C157.711 461.797 193.746 417.902 204.002 397.376C214.257 376.85 223.493 321.26 231.667 230.606H141.472C137.006 310.367 133.992 352.092 132.431 355.824C130.87 359.535 99.1496 394.23 37.2488 459.866V459.844Z" fill="#5F38FA"/>
<path fill-rule="evenodd" clip-rule="evenodd" d="M279.063 197.343L330.383 222.556C343.306 223.684 354.32 226.006 363.47 229.477C365.746 230.91 368.738 234.077 360.521 234.88C352.304 235.683 343.696 236.898 343.067 239.849C342.438 242.8 347.924 245.23 346.319 249.331C345.257 252.065 337.04 247.118 321.667 234.468L273.383 223.814L279.063 197.299V197.343ZM104.7 229.304L134.512 224.161C126.534 286.521 122.132 319.654 121.308 323.516C119.444 332.239 128.615 343.413 132.756 349.532C123.802 355.586 122.002 339.356 110.749 347.21C100.472 354.371 93.621 365.263 79.2895 359.6C77.5333 358.906 75.1266 355.521 78.8342 351.919C88.0488 342.914 100.971 327.704 102.272 323.234C104.071 317.115 104.874 285.805 104.7 229.304Z" fill="#B28B67"/>
<path fill-rule="evenodd" clip-rule="evenodd" d="M167.425 89.8947L179.371 85.6202C232.036 116.887 264.124 189.141 327.239 219.279L316.681 238.309C217.336 243.473 176.986 155.553 167.425 89.8947Z" fill="#DE9B28"/>
<path fill-rule="evenodd" clip-rule="evenodd" d="M140.865 253.627C190.277 244.905 226.637 238.482 249.923 234.381C254.91 233.513 252.698 226.505 251.354 223.011C235.7 182.762 195.307 143.489 184.835 84.1014L152.508 84.7306C133.84 130.991 133.883 183.89 140.865 253.627Z" fill="#DDE3E9"/>
<path fill-rule="evenodd" clip-rule="evenodd" d="M120.463 132.618C115.671 132.119 111.508 129.71 107.996 125.392C92.8619 106.754 95.0084 94.6465 106.63 88.7447C118.251 82.8428 130.566 88.6145 150.145 85.1428C151.207 84.9476 152.204 84.8391 153.115 84.8174L163.067 83.6457C208.121 174.018 227.114 236.247 220.068 270.378L134.23 285.523C131.217 298.238 128.116 309.022 124.886 317.896L101.491 322.019C86.8128 251.544 93.1221 188.403 120.463 132.618Z" fill="#FAC800"/>
<path fill-rule="evenodd" clip-rule="evenodd" d="M144.291 233.253C150.947 255.276 158.21 270.812 166.081 279.903L134.23 285.523C137.743 270.703 141.082 253.28 144.291 233.253Z" fill="black"/>
</g>
<defs>
<clipPath id="clip0_6_247">
<rect width="365.93" height="575.624" fill="white"/>
</clipPath>
</defs>
</svg>
