<svg width="448" height="628" viewBox="0 0 448 628" fill="none" xmlns="http://www.w3.org/2000/svg">
<g clip-path="url(#clip0_6_248)">
<path fill-rule="evenodd" clip-rule="evenodd" d="M208.989 104.986C202.311 97.1535 197.801 87.5413 198.56 76.8009C200.728 45.8162 243.852 52.6294 252.243 68.2736C260.634 83.9178 259.637 123.603 248.796 126.402C244.481 127.509 235.267 124.775 225.9 119.134L231.776 160.794H197.042L209.01 105.008L208.989 104.986Z" fill="#B28B67"/>
<path fill-rule="evenodd" clip-rule="evenodd" d="M232.448 50.2425C227.873 49.4831 215.536 48.9841 213.26 48.9841C211.807 48.9841 210.224 49.3095 209.379 47.986C208.685 46.9011 208.923 45.035 208.728 43.7766C208.49 42.3011 208.143 40.8473 207.796 39.3936C206.799 35.271 205.281 31.3437 203.178 27.655C199.21 20.7334 193.399 15.3089 186.071 12.1627C177.984 8.69103 168.812 7.8882 160.118 8.58254C150.795 9.34196 142.361 12.4231 133.58 15.3089C125.189 18.0645 116.408 19.1494 107.649 17.8042C98.8245 16.4372 92.1466 11.6636 84.6881 7.10708C77.0562 2.44202 68.3402 -0.595685 59.3207 0.0986484C50.9083 0.749586 43.1463 4.22125 36.1865 8.88631C29.682 13.2259 24.305 18.4551 21.2696 25.8324C17.9957 33.7521 18.0174 42.4313 23.3727 49.4397C31.1564 59.5726 45.5963 62.1981 57.6078 61.9377C64.5676 61.7858 71.3756 60.5274 77.9451 58.2057C86.7045 55.1246 94.2497 49.8954 102.445 45.6643C106.283 43.6681 110.251 42.0407 114.414 40.869C118.446 39.7191 122.436 39.1983 126.078 41.6502C129.937 44.2322 133.407 46.7709 137.83 48.3982C142.079 49.9388 146.567 50.8067 151.099 50.785C159.901 50.7199 168.574 47.9643 177.117 46.1416C184.076 44.6445 191.535 43.1473 198.646 44.5794C201.617 45.1869 205.953 46.4237 207.015 49.5048C188.998 52.7812 181.908 75.0867 186.982 91.4686C189.714 100.3 206.213 110.65 212.609 105.985C216.664 103.034 214.214 99.1714 212.609 96.6327C209.552 91.7507 208.511 85.48 214.17 82.0734C219.049 79.1442 224.165 86.1092 224.274 86.1092C225.618 86.0007 237.196 79.448 245.175 69.8792C253.045 70.3565 254.238 65.149 252.351 60.8962C250.465 56.6434 238.735 51.3057 232.404 50.2642L232.448 50.2425Z" fill="white"/>
<path fill-rule="evenodd" clip-rule="evenodd" d="M188.369 281.022L295.91 460.941L376.543 613.043H393.91L258.834 281H188.391L188.369 281.022Z" fill="#997659"/>
<path fill-rule="evenodd" clip-rule="evenodd" d="M365.919 606.035C364.293 610.353 363.491 613.607 363.491 615.734C363.491 618.338 363.925 622.156 364.792 627.169H446.423C448.548 620.16 447.312 616.363 442.759 615.799C438.184 615.235 434.39 614.736 431.376 614.28L393.433 597.356C392.696 597.03 391.85 597.356 391.525 598.093C391.525 598.093 391.525 598.115 391.525 598.137L389.097 604.06C384.869 606.035 381.422 607.033 378.776 607.033C376.63 607.033 373.66 606.165 369.865 604.429C368.413 603.757 366.7 604.408 366.028 605.861C366.006 605.926 365.963 605.991 365.941 606.057L365.919 606.035Z" fill="#E4E4E4"/>
<path fill-rule="evenodd" clip-rule="evenodd" d="M354.146 588.698L387.644 578.565C372.966 534.67 354.992 486.371 333.701 433.645C312.409 380.919 289.535 330.059 265.1 281.022H170.504C197.671 343.034 226.485 399.384 256.926 450.07C287.367 500.756 319.781 546.951 354.146 588.698Z" fill="#CC5B53"/>
<path fill-rule="evenodd" clip-rule="evenodd" d="M181.301 281.022C171.154 344.249 151.576 425.031 149.733 427.526C148.497 429.197 104.158 444.06 16.7163 472.137L20.4672 487.456C124.755 472.397 179.696 460.724 185.312 452.414C193.724 439.959 235.787 341.515 252.048 281.022H181.301Z" fill="#B28B67"/>
<path fill-rule="evenodd" clip-rule="evenodd" d="M47.4392 458.879L54.052 483.572C132.041 490.407 179.827 485.481 197.41 468.73C214.994 451.98 235.028 389.424 257.533 281.022H167.338C153.093 369.788 145.115 416.026 143.423 419.758C141.732 423.49 109.73 436.531 47.4175 458.879H47.4392Z" fill="#FF7268"/>
<path fill-rule="evenodd" clip-rule="evenodd" d="M20.9877 465.736C16.4563 464.89 13.1173 464.651 11.0142 465.02C8.43412 465.476 4.76994 466.561 0 468.296C0.520357 471.291 5.24692 498.088 14.1797 548.752C21.443 549.62 24.9771 547.754 24.7169 543.154C24.4785 538.554 24.305 534.714 24.24 531.654L34.3002 491.318C34.4953 490.537 34.0183 489.756 33.2378 489.56C33.2378 489.56 33.2161 489.56 33.1944 489.56L26.9501 488.193C24.2616 484.375 22.7006 481.142 22.2453 478.538C21.8767 476.411 22.2019 473.352 23.2643 469.316C23.6762 467.776 22.7439 466.192 21.1829 465.779C21.1178 465.779 21.0528 465.736 20.9877 465.736Z" fill="#E4E4E4"/>
<path fill-rule="evenodd" clip-rule="evenodd" d="M312.886 258L353.886 298.033C365.811 303.132 375.589 308.752 383.2 314.892C384.912 316.953 386.777 320.924 378.711 319.145C370.646 317.366 362.082 315.869 360.586 318.494C359.068 321.119 363.534 325.134 360.737 328.584C358.873 330.862 352.585 323.593 341.896 306.734L299.27 281.586L312.886 258ZM130.913 263.642L161.159 263.75C142.491 324.07 132.409 356.096 130.913 359.785C127.574 368.095 134.642 380.745 137.678 387.537C127.813 391.963 128.853 375.581 116.408 381.396C105.047 386.691 96.3961 396.281 83.2787 388.166C81.6526 387.168 79.8964 383.414 84.1676 380.485C94.8133 373.173 110.164 360.393 112.224 356.183C115.042 350.433 121.286 319.601 130.913 263.642Z" fill="#B28B67"/>
<path fill-rule="evenodd" clip-rule="evenodd" d="M216.859 136.644L229.369 134.496C250.92 188.35 288.538 237.3 342.221 281.325L301.655 330.645C247.972 267.959 214.886 203.3 216.859 136.644Z" fill="#4428B2"/>
<path fill-rule="evenodd" clip-rule="evenodd" d="M162.308 294.019H273.751C247.928 231.203 235.028 177.826 235.028 133.91L201.422 128.897C174.992 171.425 167.533 223.761 162.33 294.019H162.308Z" fill="#DDE3E9"/>
<path fill-rule="evenodd" clip-rule="evenodd" d="M200.706 128.941C200.706 128.941 200.706 128.941 200.706 128.919H202.896C205.519 129.006 209.53 129.18 214.886 129.418L223.016 152.657C223.884 180.973 228.892 238.06 238.063 323.897H165.018C165.213 329.82 165.517 335.809 165.972 341.841H111.66C119.79 250.102 149.451 179.128 200.663 128.941H200.684H200.706Z" fill="#5F38FA"/>
<path fill-rule="evenodd" clip-rule="evenodd" d="M169.853 248.019C171.934 284.971 177.138 310.444 185.464 324.439H165.04C164.151 297.859 165.755 272.386 169.853 248.019Z" fill="black"/>
<path fill-rule="evenodd" clip-rule="evenodd" d="M181.279 279.546L217.292 262.795V279.546H181.279Z" fill="white" fill-opacity="0.2"/>
</g>
<defs>
<clipPath id="clip0_6_248">
<rect width="447.432" height="627.169" fill="white"/>
</clipPath>
</defs>
</svg>
