<?xml version="1.0" encoding="UTF-8"?>
<svg id="Ebene_1" data-name="Ebene 1" xmlns="http://www.w3.org/2000/svg" xmlns:xlink="http://www.w3.org/1999/xlink" viewBox="0 0 448 717.72">
  <defs>
    <style>
      .cls-1 {
        fill: none;
      }

      .cls-2 {
        fill: #cc5b53;
      }

      .cls-2, .cls-3, .cls-4, .cls-5, .cls-6, .cls-7, .cls-8, .cls-9, .cls-10, .cls-11, .cls-12 {
        fill-rule: evenodd;
      }

      .cls-3 {
        fill: #fff;
      }

      .cls-4 {
        fill: #5f38fa;
      }

      .cls-6 {
        fill: #b28b67;
      }

      .cls-7 {
        fill: rgba(255, 255, 255, .2);
      }

      .cls-8 {
        fill: #ff7268;
      }

      .cls-9 {
        fill: #e4e4e4;
      }

      .cls-10 {
        fill: #dde3e9;
      }

      .cls-11 {
        fill: #4428b2;
      }

      .cls-12 {
        fill: #997659;
      }

      .cls-13 {
        clip-path: url(#clippath);
      }
    </style>
    <clipPath id="clippath">
      <rect class="cls-1" width="447.43" height="716.89"/>
    </clipPath>
  </defs>
  <g class="cls-13">
    <g>
      <path class="cls-6" d="M208.99,194.71c-6.68-7.83-11.19-17.44-10.43-28.19,2.17-30.98,45.29-24.17,53.68-8.53,8.39,15.64,7.39,55.33-3.45,58.13-4.32,1.11-13.53-1.63-22.9-7.27l5.88,41.66h-34.73l11.97-55.79-.02-.02Z"/>
      <path class="cls-3" d="M209.58,140.38c.53-1.17,1.74-3.42,2.38-4.52.75-1.3,1.39-2.64,2.04-3.99,1.83-3.83,3.12-7.83,3.82-12.02,1.28-7.87.19-15.75-3.51-22.81-4.09-7.79-10.7-14.2-17.89-19.14-7.72-5.29-16.2-8.21-24.84-11.51-8.25-3.15-15.75-7.85-21.7-14.41-5.99-6.62-8.16-14.54-11.08-22.78-2.98-8.43-7.83-16.29-15.27-21.43-6.94-4.8-15.15-7-23.5-7.76-7.78-.73-15.26-.06-22.26,3.75-7.53,4.08-12.99,10.83-13.25,19.65-.35,12.77,9.21,23.91,18.69,31.28,5.5,4.27,11.58,7.59,18.14,9.92,8.74,3.13,17.9,3.83,26.92,5.71,4.24.87,8.34,2.11,12.31,3.82,3.85,1.65,7.28,3.76,8.56,7.96,1.37,4.44,2.46,8.6,4.87,12.65,2.33,3.87,5.26,7.38,8.79,10.22,6.87,5.5,15.34,8.83,23.12,12.8,6.35,3.23,13.08,6.77,17.7,12.36,1.92,2.34,4.51,6.04,3.39,9.1"/>
      <path class="cls-3" d="M207.01,139.23c-18.02,3.28-25.11,25.58-20.03,41.96,2.73,8.83,19.23,19.18,25.63,14.52,4.06-2.95,1.61-6.81,0-9.35-3.06-4.88-4.1-11.15,1.56-14.56,4.88-2.93,9.99,4.04,10.1,4.04,1.34-.11,12.92-6.66,20.9-16.23,7.87.48,9.06-4.73,7.18-8.98-1.89-4.25-13.62-9.59-19.95-10.63l.04-.02c-4.57-.76-16.91-1.26-19.19-1.26-1.45,0-3.04.33-3.88-1"/>
      <path class="cls-12" d="M188.37,370.75l107.54,179.92,80.63,152.1h17.37l-135.08-332.04h-70.44l-.02.02Z"/>
      <path class="cls-9" d="M365.92,695.76c-1.63,4.32-2.43,7.57-2.43,9.7,0,2.6.43,6.42,1.3,11.43h81.63c2.12-7.01.89-10.81-3.66-11.37-4.58-.56-8.37-1.06-11.38-1.52l-37.94-16.92c-.74-.33-1.58,0-1.91.74v.04l-2.43,5.92c-4.23,1.97-7.67,2.97-10.32,2.97-2.15,0-5.12-.87-8.91-2.6-1.45-.67-3.16-.02-3.84,1.43-.02.07-.07.13-.09.2l-.02-.02Z"/>
      <path class="cls-2" d="M354.15,678.42l33.5-10.13c-14.68-43.9-32.65-92.19-53.94-144.92-21.29-52.73-44.17-103.59-68.6-152.62h-94.6c27.17,62.01,55.98,118.36,86.42,169.05,30.44,50.69,62.86,96.88,97.22,138.63Z"/>
      <path class="cls-6" d="M181.3,370.75c-10.15,63.23-29.72,144.01-31.57,146.5-1.24,1.67-45.58,16.53-133.02,44.61l3.75,15.32c104.29-15.06,159.23-26.73,164.84-35.04,8.41-12.45,50.48-110.9,66.74-171.39h-70.75Z"/>
      <path class="cls-8" d="M47.44,548.6l6.61,24.69c77.99,6.84,125.77,1.91,143.36-14.84,17.58-16.75,37.62-79.31,60.12-187.71h-90.19c-14.24,88.77-22.22,135-23.91,138.74-1.69,3.73-33.69,16.77-96.01,39.12h.02Z"/>
      <path class="cls-9" d="M20.99,555.46c-4.53-.85-7.87-1.08-9.97-.72-2.58.46-6.24,1.54-11.01,3.28.52,2.99,5.25,29.79,14.18,80.46,7.26.87,10.8-1,10.54-5.6-.24-4.6-.41-8.44-.48-11.5l10.06-40.34c.2-.78-.28-1.56-1.06-1.76h-.04l-6.24-1.37c-2.69-3.82-4.25-7.05-4.7-9.65-.37-2.13-.04-5.19,1.02-9.22.41-1.54-.52-3.12-2.08-3.54-.07,0-.13-.04-.2-.04Z"/>
      <path class="cls-6" d="M312.89,347.72l41,40.03c11.93,5.1,21.7,10.72,29.31,16.86,1.71,2.06,3.58,6.03-4.49,4.25-8.07-1.78-16.63-3.28-18.12-.65-1.52,2.62,2.95,6.64.15,10.09-1.86,2.28-8.15-4.99-18.84-21.85l-42.63-25.15,13.62-23.59ZM130.91,353.37l30.25.11c-18.67,60.32-28.75,92.35-30.25,96.04-3.34,8.31,3.73,20.96,6.76,27.75-9.86,4.43-8.82-11.96-21.27-6.14-11.36,5.3-20.01,14.89-33.13,6.77-1.63-1-3.38-4.75.89-7.68,10.65-7.31,26-20.09,28.06-24.3,2.82-5.75,9.06-36.58,18.69-92.54Z"/>
      <path class="cls-11" d="M216.86,226.37l12.51-2.15c21.55,53.85,59.17,102.8,112.85,146.83l-40.57,49.32c-53.68-62.69-86.77-127.34-84.8-194Z"/>
      <path class="cls-10" d="M162.31,383.74h111.44c-25.82-62.82-38.72-116.19-38.72-160.11l-33.61-5.01c-26.43,42.53-33.89,94.86-39.09,165.12h-.02Z"/>
      <path class="cls-4" d="M200.71,218.66v-.02h2.19c2.62.09,6.63.26,11.99.5l8.13,23.24c.87,28.32,5.88,85.4,15.05,171.24h-73.04c.19,5.92.5,11.91.95,17.94h-54.31c8.13-91.74,37.79-162.71,89-212.9h.04Z"/>
      <path class="cls-5" d="M169.85,337.74c2.08,36.95,7.29,62.43,15.61,76.42h-20.42c-.89-26.58.72-52.05,4.81-76.42Z"/>
      <path class="cls-7" d="M181.28,369.27l36.01-16.75v16.75h-36.01Z"/>
    </g>
  </g>
</svg>