<svg width="448" height="600" viewBox="0 0 448 600" fill="none" xmlns="http://www.w3.org/2000/svg">
<g clip-path="url(#clip0_6_293)">
<path fill-rule="evenodd" clip-rule="evenodd" d="M211.863 79.1208C222.362 82.1635 232.035 82.5175 236.036 80.4415C246.048 75.2304 237.982 37.8592 226.164 25.2337C214.346 12.6083 170.406 16.5547 175.353 46.0811C177.059 56.3285 183.689 64.2302 192.035 69.959L193.004 125.008L227.145 116.694L211.86 79.1343L211.863 79.1208Z" fill="#D3AF95"/>
<path fill-rule="evenodd" clip-rule="evenodd" d="M226.886 10.504C228.657 17.7431 224.14 25.0994 216.727 27.3143C212.279 29.8872 206.209 32.4199 199.319 34.4151C202.332 38.2799 204.698 43.1236 206.037 48.6128C206.116 48.9467 206.191 49.2941 206.27 49.6279C204.301 47.7149 201.618 46.8223 198.975 47.458C194.657 48.514 192.105 53.312 193.291 58.1775C194.477 63.043 198.947 66.135 203.265 65.079C204.65 64.7333 205.865 64.0177 206.816 63.0248C205.436 72.6275 200.107 80.2074 192.341 82.0954C184.574 83.9834 177.074 80.0744 171.464 72.8295C166.073 77.7009 158.247 81.7814 149.096 84.0154C129.851 88.7034 112.02 83.4104 109.284 72.1896C106.548 60.9683 119.926 48.0573 139.184 43.3716C148.336 41.1379 157.152 41.1746 164.196 43.0129C164.868 39.3178 166.15 35.953 167.929 33.1502C168.937 28.7033 179.785 22.501 193.865 18.5677C195.398 18.1423 196.925 17.7441 198.422 17.4105C196.621 9.93504 201.507 2.35084 209.351 0.438239C217.208 -1.47116 225.054 3.03564 226.883 10.5175L226.886 10.504Z" fill="white"/>
<path fill-rule="evenodd" clip-rule="evenodd" d="M347.817 252.781L301.043 220.526L291.089 245.078L337.24 262.873C350.406 277.421 357.748 283.455 359.258 281.005C360.523 278.925 359.487 277.004 358.541 275.247C357.793 273.867 357.106 272.587 357.588 271.397C358.692 268.664 367.429 268.854 375.703 269.364C383.977 269.874 381.527 266.358 379.513 264.635C371.011 259.873 360.454 255.928 347.841 252.801L347.817 252.781ZM105.347 313.549C109.505 305.163 123.008 223.798 123.008 223.798L153.393 223.55C153.393 223.55 126.331 311.435 124.156 316.824C121.329 323.82 126.406 333.861 129.839 340.676C130.377 341.734 130.863 342.709 131.287 343.583C126.658 345.654 124.391 343.241 121.995 340.711C119.29 337.851 116.437 334.826 109.842 337.88C107.298 339.069 104.881 340.445 102.525 341.808C94.4002 346.491 86.936 350.799 76.6265 344.836C74.9878 343.89 73.1758 340.28 77.4258 337.389C88.0377 330.185 103.293 317.633 105.323 313.529L105.347 313.549Z" fill="#D3AF95"/>
<path fill-rule="evenodd" clip-rule="evenodd" d="M207.839 99.8794L220.386 97.6464C267.503 135.915 287.581 210.297 345.253 249.129L331.689 265.735C232.359 255.103 206.655 164.389 207.839 99.8794Z" fill="#DE9B28"/>
<path fill-rule="evenodd" clip-rule="evenodd" d="M154.914 252.811C154.914 252.811 230.529 251.9 266.146 251.471C271.231 251.413 270.179 244.344 269.402 240.779C260.414 199.679 226.756 155.667 226.038 97.0234L193.898 92.5584C167.874 134.015 159.322 184.777 154.917 252.797L154.914 252.811Z" fill="white"/>
<path fill-rule="evenodd" clip-rule="evenodd" d="M142.77 282.401C137.916 294.034 133.138 304.194 128.613 312.007L104.762 312.297C101.214 232.335 131.873 170.41 157.706 132.977C151.869 132.642 146.567 130.341 143.164 124.607C131.187 104.35 135.284 93.0695 147.767 89.2305C154.628 87.1135 161.138 88.4245 168.906 89.9905C175.267 91.2655 182.502 92.7195 191.48 92.6215C192.355 92.6145 193.147 92.6585 193.869 92.7575L204.521 93.2135C204.521 93.2135 249.5 233.9 230.698 281.35L142.766 282.414L142.77 282.401Z" fill="#FAC800"/>
<path fill-rule="evenodd" clip-rule="evenodd" d="M142.765 282.405C149.134 267.147 155.649 249.331 161.896 230.949C164.549 251.078 168.819 271.274 175.64 282L142.782 282.395L142.765 282.405Z" fill="black"/>
<path fill-rule="evenodd" clip-rule="evenodd" d="M188.625 252.82L295.92 432.885L376.346 585.098L393.713 585.121L259.089 252.894L188.647 252.798L188.625 252.82Z" fill="#D3AF95"/>
<path fill-rule="evenodd" clip-rule="evenodd" d="M365.731 578.075C364.099 582.391 363.292 585.644 363.289 587.771C363.286 590.374 363.714 594.194 364.574 599.207L446.205 599.318C448.34 592.313 447.109 588.514 442.557 587.944C437.983 587.373 434.189 586.869 431.176 586.409L393.256 569.433C392.52 569.107 391.674 569.431 391.347 570.168C391.347 570.168 391.347 570.19 391.347 570.212L388.911 576.132C384.68 578.101 381.232 579.094 378.586 579.09C376.44 579.088 373.471 578.216 369.679 576.475C368.227 575.8 366.513 576.449 365.839 577.901C365.818 577.967 365.774 578.032 365.752 578.097L365.731 578.075Z" fill="#E4E4E4"/>
<path fill-rule="evenodd" clip-rule="evenodd" d="M353.981 560.722L387.493 550.635C372.875 506.72 354.966 458.396 333.747 405.641C312.528 352.886 289.723 301.995 265.355 252.925L170.758 252.796C197.841 314.845 226.579 371.234 256.95 421.962C287.322 472.69 319.673 518.929 353.981 560.722Z" fill="#4428B2"/>
<path fill-rule="evenodd" clip-rule="evenodd" d="M181.556 252.81C171.322 316.024 151.634 396.779 149.788 399.272C148.549 400.941 104.191 415.743 16.7109 443.701L20.4409 459.025C124.749 444.109 179.706 432.51 185.333 424.208C193.762 411.764 235.959 313.378 252.302 252.907L181.556 252.81Z" fill="#D3AF95"/>
<path fill-rule="evenodd" clip-rule="evenodd" d="M47.4519 430.486L54.0311 455.187C132.01 462.128 179.803 457.268 197.409 440.541C215.016 423.814 235.135 361.286 257.788 252.914L167.593 252.791C153.227 341.538 145.185 387.765 143.489 391.495C141.793 395.225 109.773 408.222 47.4302 430.486H47.4519Z" fill="#5F38FA"/>
<path fill-rule="evenodd" clip-rule="evenodd" d="M20.9912 437.306C16.4609 436.454 13.1223 436.211 11.0187 436.577C8.43796 437.029 4.77231 438.109 0 439.838C0.516276 442.833 5.20632 469.636 14.0701 520.313C21.3322 521.191 24.8688 519.33 24.6149 514.729C24.3827 510.129 24.2145 506.288 24.1536 503.229L34.2688 462.906C34.465 462.125 33.9891 461.344 33.2088 461.147C33.2088 461.147 33.1871 461.147 33.1654 461.147L26.923 459.772C24.2397 455.949 22.683 452.714 22.2313 450.11C21.8656 447.983 22.195 444.924 23.2629 440.889C23.6769 439.349 22.7468 437.764 21.1863 437.35C21.1212 437.35 21.0562 437.306 20.9912 437.306Z" fill="#E4E4E4"/>
</g>
<defs>
<clipPath id="clip0_6_293">
<rect width="447.222" height="599.318" fill="white"/>
</clipPath>
</defs>
</svg>
