<svg width="335" height="553" viewBox="0 0 335 553" fill="none" xmlns="http://www.w3.org/2000/svg">
<g clip-path="url(#clip0_6_249)">
<path fill-rule="evenodd" clip-rule="evenodd" d="M193.486 47.354C189.237 38.4144 187.437 28.3466 190.798 18.5391C200.533 -9.73327 238.931 7.343 242.833 23.9853C246.736 40.6276 235.939 77.2754 225.163 77.1669C220.87 77.1235 212.978 72.2849 205.671 64.6906L200.771 104.897L168.466 96.2394L193.465 47.354H193.486Z" fill="#B28B67"/>
<path fill-rule="evenodd" clip-rule="evenodd" d="M238.15 12.442C237.521 11.791 236.22 10.4458 235.548 9.90332C235.375 9.77313 234.334 8.49297 234.291 8.49297C233.228 8.55806 230.041 9.01371 229.521 10.0118C229.456 10.0769 229.412 10.142 229.347 10.2071C228.74 10.8363 228.177 11.4873 227.613 12.1599C226.377 13.6137 225.25 15.1976 224.144 16.7599C221.997 19.7976 219.981 22.9655 218.073 26.1551C216.122 29.4098 214.3 32.7512 212.392 36.0276C209.639 40.7578 206.538 45.2492 203.807 49.9577C202.05 52.9737 200.684 56.1416 200.034 59.5482C200.034 59.5916 200.034 59.635 200.012 59.6784V59.7218C199.904 60.2425 199.839 60.7849 199.774 61.3057C199.73 61.7614 199.665 62.217 199.622 62.6944C201.552 60.5246 203.243 58.0293 204.956 55.6642C205.129 55.4256 205.281 55.2086 205.454 54.9699C205.931 54.536 206.408 54.0803 206.885 53.6463C209.899 50.9124 212.935 48.1785 215.883 45.3577C221.195 40.2804 226.485 35.0512 232.34 30.6465C234.074 29.3447 235.83 28.0862 237.543 26.7626C238.519 26.0032 239.473 25.2438 240.427 24.4409C241.099 23.8768 243.874 22.0108 243.505 20.34C243.31 19.4938 239.82 14.0693 238.215 12.4203L238.15 12.442Z" fill="white"/>
<path fill-rule="evenodd" clip-rule="evenodd" d="M235.722 10.0986C236.372 10.5326 236.437 8.94865 235.874 8.23262C233.293 4.93453 221.195 0.725132 209.856 0.0741945C202.267 -0.359764 192.901 1.1157 185.854 4.34869C179.523 7.27791 174.103 13.2231 170.482 19.407C166.666 25.8947 164.433 33.1418 163.587 40.6059C163.392 42.255 163.501 43.8823 163.37 45.5096C163.219 47.3323 162.937 49.0464 163.045 50.9124C163.11 52.0407 163.435 53.2124 163.457 54.3407C163.457 55.6209 162.98 56.6624 162.395 57.8124C161.462 59.6784 160.443 61.5227 159.229 63.2151C157.408 65.7538 155.413 68.0755 153.809 70.7877C151.684 74.4113 143.792 85.9112 146.134 90.2508L208.75 107.045C208.316 102.315 204.956 95.979 205.216 91.1187C205.389 88.2545 206.69 82.2442 206.69 82.0272C207.883 71.916 206.387 66.5349 205.107 64.3868C203.828 62.2387 201.682 61.1104 201.942 59.6133C203.069 53.4294 207.037 48.287 210.311 43.1012C214.214 36.939 217.596 30.4513 221.564 24.3108C223.32 21.5985 232.296 7.84206 235.7 10.0986H235.722Z" fill="#5F38FA"/>
<path fill-rule="evenodd" clip-rule="evenodd" d="M211.916 11.1618C207.536 18.0184 205.975 21.9023 203.742 32.2739L202.592 31.9702C203.026 21.7287 207.384 13.1364 210.485 10.7713L211.937 11.1618H211.916ZM175.057 22.0108C176.596 33.8796 176.922 40.7144 186.873 52.67L185.746 53.0822C175.404 42.9059 174.06 33.6843 173.995 22.2278L175.035 22.0325L175.057 22.0108ZM196.045 16.0005C193.985 31.7098 192.25 40.5191 198.213 59.8954L197.02 59.9388C190.169 42.6238 191.622 30.3862 194.982 15.8052L196.045 16.0005ZM172.477 57.9643L173.734 57.0747C185.572 64.6038 181.908 72.567 195.915 85.4121L194.332 85.8678C181.648 76.1471 181.691 62.6293 172.477 57.9643Z" fill="black"/>
<path fill-rule="evenodd" clip-rule="evenodd" d="M127.683 219.484C130.198 253.81 292.051 354.835 292.983 357.678C293.395 358.936 276.613 398.752 242.595 477.146L256.731 482.658C308.897 399.641 333.636 353.707 330.947 344.854C327.11 332.183 285.243 290.523 205.368 219.853L127.639 219.484H127.683Z" fill="#B28B67"/>
<path fill-rule="evenodd" clip-rule="evenodd" d="M246.346 459.441L269.437 467.86C318.155 412.855 337.235 367.485 333.766 344.355C331.446 328.95 289.731 287.355 208.62 219.57H126.035C128.854 299.05 278.868 357.981 280.884 361.366C282.901 364.751 263.149 397.927 246.346 459.463V459.441Z" fill="#DE9B28"/>
<path fill-rule="evenodd" clip-rule="evenodd" d="M237.413 474.456C234.529 477.841 232.73 480.488 232.014 482.441C231.147 484.806 230.301 488.386 229.434 493.203C232.166 494.201 256.796 503.162 303.281 520.108C307.509 514.467 307.639 510.626 303.693 508.608C299.747 506.59 296.473 504.898 293.893 503.488L265.144 475.671C264.602 475.128 263.713 475.15 263.171 475.714C263.171 475.714 263.171 475.714 263.149 475.736L258.986 480.293C254.498 480.683 251.072 480.445 248.687 479.577C246.736 478.861 244.351 477.103 241.489 474.282C240.383 473.197 238.627 473.219 237.543 474.304C237.5 474.347 237.456 474.391 237.413 474.456Z" fill="#5F38FA"/>
<path fill-rule="evenodd" clip-rule="evenodd" d="M146.307 219.484L74.1944 392.72L3.33911 539.159H20.0556L202.983 219.484H146.307Z" fill="#997659"/>
<path fill-rule="evenodd" clip-rule="evenodd" d="M2.34158 532.411C0.780506 536.577 0 539.701 0 541.763C0 544.28 0.41192 547.947 1.2575 552.764H79.8531C81.8912 546.016 80.7204 542.349 76.3191 541.828C71.9177 541.285 68.2751 540.808 65.3481 540.374L28.8148 524.079C28.121 523.775 27.2971 524.079 26.9718 524.795C26.9718 524.795 26.9718 524.817 26.9718 524.838L24.6302 530.545C20.5541 532.454 17.2368 533.409 14.7001 533.409C12.6187 533.409 9.77835 532.585 6.13585 530.892C4.74823 530.241 3.07879 530.87 2.45002 532.259C2.42834 532.324 2.40664 532.389 2.36328 532.433L2.34158 532.411Z" fill="#5F38FA"/>
<path fill-rule="evenodd" clip-rule="evenodd" d="M9.73535 508.739L46.8758 515.704C75.6039 473.436 195.806 300.157 208.989 219.484H126.295C82.2818 277.808 37.1191 465.777 9.73535 508.739Z" fill="#FAC800"/>
<path fill-rule="evenodd" clip-rule="evenodd" d="M265.816 213.452L298.013 258.258C308.463 265.093 316.811 272.036 322.99 279.153C324.269 281.409 325.375 285.467 318.025 282.429C310.675 279.392 302.805 276.549 300.94 278.784C299.075 281.019 302.631 285.575 299.401 288.374C297.254 290.241 292.506 282.277 285.199 264.507L248.991 233.522L265.838 213.452H265.816ZM92.3418 188.369L121.005 193.533C93.2091 247.604 78.3139 276.267 76.2975 279.522C71.7444 286.834 76.3409 300.005 78.0754 306.97C67.9718 309.508 71.701 294.168 58.9306 297.574C47.2659 300.699 37.4659 308.337 26.3866 298.442C25.0207 297.227 23.9799 293.365 28.5114 291.304C39.8291 286.161 56.5022 276.593 59.1907 272.947C62.8332 267.978 73.8909 239.771 92.3635 188.347L92.3418 188.369Z" fill="#B28B67"/>
<path fill-rule="evenodd" clip-rule="evenodd" d="M195.047 82.3311L207.276 82.3962C218.702 137.075 246.194 189.779 289.752 240.487L243.05 280.477C202.614 212.063 182.06 145.212 195.069 82.3528L195.047 82.3311Z" fill="#FF7268"/>
<path fill-rule="evenodd" clip-rule="evenodd" d="M117.037 222.435L222.691 241.073C208.707 177.194 205.389 124.425 212.718 82.8084L181.691 72.4368C149.538 108.325 133.71 156.733 117.037 222.435Z" fill="white"/>
<path fill-rule="evenodd" clip-rule="evenodd" d="M180.998 72.3283C180.998 72.3283 180.998 72.3283 180.998 72.3066L183.079 72.6755C185.551 73.1962 189.323 74.0207 194.375 75.149L198.191 98.5394C194.267 125.532 189.497 180.492 183.859 263.422L114.587 251.206C113.785 256.847 113.069 262.576 112.484 268.391L60.9902 259.299C84.016 173.679 123.997 111.363 180.954 72.3283H180.976H180.998Z" fill="#FF7268"/>
<path fill-rule="evenodd" clip-rule="evenodd" d="M131.867 180.058C127.661 215.448 128.355 240.465 133.905 255.133L114.543 251.705C118.143 226.34 123.91 202.451 131.867 180.058Z" fill="black"/>
<path fill-rule="evenodd" clip-rule="evenodd" d="M137.439 211.868L174.385 201.995L171.588 217.878L137.439 211.846V211.868Z" fill="white"/>
</g>
<defs>
<clipPath id="clip0_6_249">
<rect width="334.163" height="552.764" fill="white"/>
</clipPath>
</defs>
</svg>
